<?xml version="1.0" encoding="utf-8"?>
<!-- Generator: Adobe Illustrator 22.0.1, SVG Export Plug-In . SVG Version: 6.00 Build 0)  -->
<svg version="1.1" id="Capa_1" xmlns="http://www.w3.org/2000/svg" xmlns:xlink="http://www.w3.org/1999/xlink" x="0px" y="0px"
	 viewBox="0 0 36 36" style="enable-background:new 0 0 36 36;" xml:space="preserve">
<style type="text/css">
	.st0{fill:#91969D;}
</style>
<g>
	<path class="st0" d="M11.7,15.3c0.7,0,1.3-0.6,1.3-1.3s-0.6-1.3-1.3-1.3c-0.7,0-1.4,0.6-1.4,1.3S11,15.3,11.7,15.3z"/>
	<circle class="st0" cx="24.3" cy="14" r="1.3"/>
	<path class="st0" d="M27.5,19.1c-0.2-0.1-0.3-0.1-0.5,0c-0.2,0.1-0.3,0.2-0.4,0.3c-1.7,3.3-5,5.4-8.7,5.4s-6.9-2.1-8.7-5.4
		C9.3,19.2,9.1,19.1,9,19c-0.2-0.1-0.3,0-0.5,0.1c-0.3,0.1-0.4,0.5-0.3,0.9c1.9,3.7,5.7,6,9.8,6c4.2,0,7.9-2.3,9.8-6
		C28,19.6,27.8,19.2,27.5,19.1z"/>
	<path class="st0" d="M29.3,6.7c-3-3-7-4.7-11.3-4.7S9.7,3.7,6.7,6.7c-3,3-4.7,7-4.7,11.3s1.7,8.3,4.7,11.3c3,3,7,4.7,11.3,4.7
		s8.3-1.7,11.3-4.7c3-3,4.7-7,4.7-11.3S32.3,9.7,29.3,6.7z M18,32.8c-4,0-7.7-1.5-10.4-4.3C4.8,25.7,3.2,22,3.2,18
		c0-4,1.5-7.7,4.3-10.4C10.3,4.8,14,3.2,18,3.2c4,0,7.7,1.5,10.4,4.3c2.8,2.8,4.3,6.5,4.3,10.4c0,4-1.5,7.7-4.3,10.4
		S22,32.8,18,32.8z"/>
</g>
</svg>
