<?xml version="1.0" encoding="utf-8"?>
<!-- Generator: Adobe Illustrator 22.0.1, SVG Export Plug-In . SVG Version: 6.00 Build 0)  -->
<svg version="1.1" id="Capa_1" xmlns="http://www.w3.org/2000/svg" xmlns:xlink="http://www.w3.org/1999/xlink" x="0px" y="0px"
	 viewBox="0 0 36 36" style="enable-background:new 0 0 36 36;" xml:space="preserve">
<style type="text/css">
	.st0{fill:#91969D;}
</style>
<g>
	<path class="st0" d="M10.1,15.5c1.9,0,3.4-1.5,3.4-3.5S12,8.6,10.1,8.6c-1.9,0-3.5,1.5-3.5,3.4C6.7,13.9,8.3,15.5,10.1,15.5z
		 M10.2,9.9c1.3,0,2.2,1,2.2,2.2c0,1.2-1,2.3-2.2,2.3s-2.3-1.1-2.3-2.3C7.9,10.8,8.9,9.9,10.2,9.9z"/>
	<path class="st0" d="M23.7,15.5c-0.1-0.1-0.3-0.2-0.4-0.2c-0.2,0-0.3,0.1-0.4,0.2l-5.7,6.3L14.5,19c-0.2-0.2-0.7-0.2-0.9,0
		l-8.3,7.2c-0.2,0.2-0.3,0.6-0.1,0.9c0.1,0.2,0.2,0.3,0.4,0.3c0.1,0,0.3,0,0.4-0.1l7.9-6.9l6,6c0.2,0.2,0.7,0.2,0.9,0
		c0.1-0.1,0.2-0.3,0.2-0.4c0-0.2-0.1-0.3-0.2-0.4l-2.8-3l5.3-5.8l6.6,6c0.1,0.1,0.3,0.2,0.4,0.2c0.2,0,0.3-0.1,0.4-0.2
		c0.2-0.2,0.2-0.7,0-0.9L23.7,15.5z"/>
	<path class="st0" d="M31.9,4.4H4.1C2.9,4.4,2,5.3,2,6.5v23c0,1.1,1,2.1,2.1,2.1h27.8c1.2,0,2.1-0.9,2.1-2V6.5
		C34,5.4,33,4.4,31.9,4.4z M32.8,29.6c0,0.4-0.4,0.8-0.9,0.8H4.1c-0.5,0-0.9-0.4-0.9-0.9v-23c0-0.6,0.5-0.9,0.9-0.9h27.8
		c0.5,0,0.9,0.4,0.9,0.9V29.6z"/>
</g>
</svg>
