<svg version="1.1" xmlns="http://www.w3.org/2000/svg" x="0" y="0" viewBox="0 0 230 64" xml:space="preserve"><style>.st1{fill:#fff}</style><path fill="none" d="M0 0h230v64H0z"/><path class="st1" d="M66.2 19.6s-.3-1.2-.6-1c-.3.1-1-.2-1.5-.5l-.8-.4h-2.5c-.3 0-1.6 0-2.6.4 0 0 1.5-.2 3.4.4.1 0 .2.1.2.1-.6.2-3.8.7-4.3.7-.6 0 2.2.3 3.6.2l-1 1c-.1.1-1.7.8-2 1-.4.2 1-.1 1-.1-.3.2-1.3.5-1.6.5 0 0 .3.4.7.5-.5.2-1.5.4-1.7.3 0 0 .5.1.8.3-.5.1-.9.2-1.2.3-.4-.4-.9-1.3-.9-2l2.6-5.8c.4.8 1 1.4.7 1-.2-.3-.4-.8-.5-1.4v-.3l.8-1.8.1-.1h.1l.4.2c.2.3.5.6.6.8.1.4.3.8.5 1.1 0 0-.4-1.2-.1-1.8-.7-.4-1.1-1.7-1.1-1.7l-.5.3c-.3 0-.5-.1-.6-.1-.5-.2-.8-.4-1-.5-1.7-.9-6.7-3.3-13.2-4.4-8-1.4-28-1.6-32.7-.9-4.9.9-3 .8-3 .8s9.1 1.1 17.4 3.9C17.3 11.3 9 12.1 9 12.1l-3.9 1c1.5-.2 3.4-.3 5.5-.3 1.2.1 2.7.2 4.4.4l5 .8c19.7 3.5 7.5 11.7 7.5 11.7l-.9.7c6.6-4 11.7-4 11.7-4 5.2.3 1.6 7.3 1.6 7.3C44 25.5 48.4 25 50.7 25c.5.1 1.2.3 1.6.5-.2.2-.9 1-1.1 1.2l-3.6.8c-.3.3 2.5 0 2.1.3-.4.3.2.2-.3.4-.4.2-2.9.4-3.3.6-.4.2 1.9.4 1.5.5-.4.2-.3.2-.2.2 0 0-.1 0-.3.1-.4.1-4 .2-4.4.3-.3.1 1.8.6 1.5.7-3.4.8-3.6 1.8-8.5.4-.4 0-2.4-1.7-2.6-1.7-.3 0 1 1.6.7 1.6-.3 0-3.3-1.5-3.5-1.5-.8-.1 1.6 1.3 1.6 1.3-.5-.1-.8-.3-1.3-.4-.4-.1-3.2-1.1-3.5-1.1-.2 0 1.6 1.1 1.5 1.1-.7-.1-1.2-.1-1.8-.1-.5 0-3.3-.7-3.6-.7s1.7.8 1.4.8c-1.7.2-2.7.5-2.7.5-2.4.8-.5.5-.5.5 7.6-1.3 10.3.5 13.8 1.6 7.9 2.5 15.9-2.5 15.9-2.5l-.5 1c.2 1-1 2-1 2l-.6.1-.5-.4-.6.7-.3 1.2c-.1.2-.2.7-.3 1.3-1.1.5-2.1 1.1-3 1.8-4.9 4.1-5.5 11.4-1.5 16.3s11.5 5.5 16.4 1.5l.2-.2c-4.1 2.5-9.6 1.6-12.9-2.4-3.6-4.3-3.3-10.5.9-14 4.1-3.5 10.4-2.7 14 1.5.5.5.9 1.2 1.2 1.8-.5-1.1-1.1-2.2-1.9-3.2-2.7-3.3-6.8-4.6-10.7-4 0-.9 1.1-1.5 1.1-1.5l1.7-.1c2.2-.9 3.1-2.9 3.1-2.9.3-1 .3-1.8.2-2.3l2.4-1.7h1.3l.5.1.4-.1h.2l.1-.1 2.7-1-.2 1.2.8-.6c.1.1.3.3.1.8-.1.2.6-.5.6-.5l.3-.3v.4l.3-.7.2-.5-1.4-1.2-2.8.4c-.2 0-.2.1-.3.2.3-.5.5-1.2.5-1.2l.1-1.6.9-1.2.5-.2c.2.1.5.1.7.1.2 0 .5.1.5.3l.2.1.6-.5H64.7v-.1l-.2.1c-.4-.2-.7-.7-.7-.7l.5-.5h1l.3.4.1-.2c.4.1.4.4.4.4v-.6zM49.3 34.5l-.5.6c.2-.3.5-.6.5-.6zm14.5-15.7l-.8.1-.7-.5 1.5.4zM119.7 43.7h15.7c2.1-.5 3.4-1.3 3.8-2.4l2.7-9.5h-18.7l-3.5 11.9zm5.6-3.9l1.3-4.3c0-.1.1-.3.3-.3l.4-.3c.2-.1.4-.2.5-.2h7.7c.3 0 .5.1.6.3l.3.3c.1.1.2.3.1.5l-1.3 4.2c0 .1-.1.2-.2.3-.2.2-.5.4-.7.5-.1.1-.3.1-.4.1h-7.6c-.3 0-.5-.1-.6-.3l-.3-.3c-.1-.2-.1-.4-.1-.5z"/><path class="st1" d="M144.1 24.7c-.4-1.7-.6-3.2-.7-4.5v-.9h-12.9c-.4.5-1.4 1.6-1.4 1.6-3.4 4.5-4.9 5.1-6.1 4.8-.4-.1-.5-.4-.5-.6l1.7-5.7h-12.6L104 43.9h9.4c1.8 0 3.6-1.2 3.9-1.9l3.9-13c0-.1.1-.3.3-.3l.4-.2c.2-.1.3-.1.5-.1h1.2c.3.1.5.3.6.5.2.4.1.7-.1 1 0 .1-.1.2-.1.2h18.4c.1-.9.4-1.4.8-1.5.3-.1.5-.1.7-.1h.6l.7-2.6c-.7-.5-1-.9-1.1-1.2zm-25.6-2.4l-5.8 18.9c0 .1 0 .1-.1.1-.2.3-.5.5-.9.6-.1 0-.3.1-.4.1h-.6c-.3 0-.5-.1-.6-.3l-.3-.3c-.1-.1-.2-.3-.1-.5l5.9-19.1c0-.1.1-.3.3-.3l.4-.2c.2-.1.3-.1.5-.1h.7c.3 0 .5.1.6.2l.3.2c.1.3.1.5.1.7zm20.4 4.7c-.2.1-.4.2-.5.2h-7.8c-.3 0-.5-.1-.6-.3-.1-.2-.1-.4 0-.5l1.9-2.2c1.5-1.9 1.8-2.2 2.4-2.2h3.3c.4 0 .7.2.7.5l.9 4.1c-.1.1-.1.3-.3.4zM154.2 38.3c0-.1.1-.2.2-.3l3.9-3.5 2.5-8.9c0-.1.1-.3.3-.3l.1-.1c.2-.2.5-.4.9-.5l.7-2.6c-.5-.2-.6-.5-.7-.6v-.3l.5-1.9h-4.4l-.6 2.1c0 .1-.1.3-.3.3l-.5.3c-.1.1-.3.1-.5.1h-.8c-.3 0-.5-.1-.6-.2l-.3-.3c-.2-.1-.2-.3-.2-.5l.5-1.8h-4.5l-.5 2.1c0 .1-.2.3-.3.4l-.5.2c-.1.1-.3.1-.5.1h-.5l-.7 2.6c.5.1 1.1.4 1.2.9v.2l-2.5 8.8.1.3 2.2 3.5c.1.1.1.3.1.4l-.1.2c0 .1-.1.2-.2.3-2.7 2.3-3.7 2.5-4.5 2.5-.3 0-.5-.1-.6-.2h-.3l-.7 2.5h4.4c1.2-.4 2.2-.9 3-1.7.2-.2.4-.3.6-.3h.2c.3 0 .5.1.6.3.6.9 1.4 1.5 2.1 1.6h4.1l.7-2.5c-1.7-.1-2.3-.3-2.5-.5-.1-.1-.2-.2-.2-.3L154 39c.2-.4.2-.5.2-.7zm-.1-4.5s0 .1 0 0c-.4.5-.7.8-1.2 1-.1.1-.3.1-.5.1h-.3c-.2 0-.4-.1-.5-.2-.4-.3-.6-.6-.7-1.1v-.2l2.3-8c0-.1.1-.3.3-.3l.5-.3c.2-.1.3-.1.5-.1h.8c.3 0 .5.1.6.2l.3.3c.2.1.2.3.2.5l-2.3 8.1zM183.5 28v-.2l2.3-8.5h-19.6l-2.4 8.7c0 .1-.1.2-.2.3-.3.3-.6.5-1.1.5l-.8 2.8c.4.2.6.5.7.6.1.1.1.2.1.4l-2.4 8.6h13.5c.3 0 .5-.1.8.3.2.2.1.4.1.5 0 .1-.1.5-.5.5h-2l-.2 1.4c6.6.1 6-.1 6.3-.2.1 0 .1-.1.2-.1 1.1-.5 1.5-.8 1.5-1.7v-.2c.2-.5.7-.3 1.4-.4l.7-2.6c-.5-.1-.9-.4-.9-.7v-.2l1.4-5.2c0-.1.1-.3.3-.4l.4-.2c.1-.1.3-.1.4-.1.3 0 .4-.1.5-.1l.7-2.9c-.7-.3-1.1-.6-1.2-.9zm-7 10.1c-.1.3-.4.5-.8.5h-.5c-.3 0-1.2-.1-1.4-.2l-.1-.1c-.1-.1-.2-.3-.2-.4v-3.5-.5h-3.4l-.2 4.3c0 .3-.4.5-.8.5h-2.7c-.3 0-.5-.1-.6-.2l-.2-.2c-.2-.1-.2-.3-.2-.5l1.4-5.4c0-.1.1-.3.3-.4l.5-.4c.2-.1.4-.2.5-.2h8.5c.3 0 .5.1.6.3l.4.4c.1.1.2.3.2.5l-1.3 5.5zm2.7-10c0 .1-.1.3-.3.4l-.4.3c-.2.1-.4.1-.5.1h-.4c-.3 0-1.2-.1-1.4-.2l-.1-.1c-.1-.1-.2-.3-.2-.4l-.1-3.8v-.1-.1h-3.1c.1 3-.1 3.8-.2 4.1-.1.3-.4.5-.8.5H169c-.3 0-.5-.1-.6-.2l-.1-.1c-.2-.1-.2-.3-.2-.5l1.4-5.4c0-.2.2-.3.3-.4l.5-.3c.2-.1.3-.1.5-.1h8.5c.2 0 .5.1.5.2l.4.3c.2.1.3.4.2.5l-1.2 5.3z"/><g><path class="st1" d="M216.9 23.8l.4-.2c.2-.1.3-.1.5-.1h6.5l.7-2.7h-6.3c-.1 0-.3 0-.4-.1-.5-.2-.9-.5-.5-1.2 0-.1 0-.2.1-.2h-4.5c-.1.7-.4 1.2-.8 1.4-.2.1-.5.1-.7.1h-6.7l-.7 2.7h6.5c.2 0 .5.1.5.2l.3.2c.2.1.3.3.2.5l-.5 1.7c0 .1-.1.3-.3.4l-.4.2c-.2.1-.4.1-.5.1h-6.9l-.7 2.7h11.9c.2 0 .5.1.5.2l.3.2c.2.1.3.3.2.5l-.3 1.1c0 .1-.2.3-.3.4l-.4.2c-.2.1-.3.1-.5.1h-13l-.8 3H213c.3 0 .5.1.6.2l.3.3c.1.1.2.3.2.5l-1.2 4.4c-.1.3-.4.8-1.5 1h-2.2c-.4 0-.6-.2-.8-.4-.3-.4-.2-.8 0-1.2.1-.2.2-.4.3-.5h-.2c-.6 0-1.9 0-2-1.5 0-.3-.1-.5-.1-.5h-6.5v.1c.1.3.4.9.4 1 .4 1.7 1 2.5 2.2 3.1.8.4 1.8.5 3.1.4.9-.1 1.5.1 1.9.4.5.5.1 1.3-.1 1.5 0 .1-.1.2-.1.2h7.1s.1-.1.2-.1c2.1-.5 2.7-1.2 3-2.1l1.5-6.1c0-.1.1-.2.1-.2.5-.5 1.1-.6 1.8-.5h-.2c.3 0 1.1.1 1.3.1l.7-3c-1 0-2.2-.1-2.5-.5-.2-.2-.2-.4-.1-.5l.3-1c0-.1.1-.2.2-.3.5-.5 1.1-.5 1.5-.4.3 0 1 .1 1.2.1l.7-2.7h-6.9c-.3 0-.5-.1-.6-.2l-.3-.2c-.2-.1-.2-.3-.2-.5l.5-1.7c0-.4.1-.5.3-.6zM200.8 25.1l.6-2.6c-1 .1-1.6 0-1.9-.4-.2-.2-.2-.4-.1-.5l.6-2.3h-4.7l-.6 2.5c0 .1-.2.3-.3.4l-.4.2c-.1.1-.3.1-.5.1h-1.1c-.2 0-.5-.1-.5-.2-.2-.1-.2-.3-.2-.5l.1-.5c0-.1.1-.2.2-.2l.3-.7h-2.5V20.7c-1.1 3.5-1.8 4.6-2.4 5v2.5h.3c1.2-.2 2-.8 2.5-1.8.1-.6.3-1 .6-1.3.2-.1.5-.2.8-.2h-.1 1.1c.3 0 .5.1.5.2l.3.2c.2.1.2.3.2.5l-.9 3.5c0 .1-.1.1-.1.2-3.9 4.5-6 5.2-7 5.5l-.7 3.5h.3l1.7-.1c.9-.2 1.5-.5 1.9-.8.2-.2.9-.3 1.2-.1.3.1.5.4.5.5l-1.5 5.6h4.8l3.1-11.8c0-.1 0-.1.1-.2.2-.2.6-.7 1.8-.5h-.1.6l.6-2.6c-.9 0-1.5 0-1.9-.4-.2-.2-.2-.4-.1-.5l.5-2.1c0-.1 0-.1.1-.2.2-.2.6-.6 1.8-.5h-.1c.2.4.4.4.6.3z"/></g><path class="st1" d="M102.7 41.1H77.1c-.4 0-.5-.1-.6-.1-.4-.2-.9-.8-.8-2.1 0-.1.1-.5.3-.9 0 0 .2-.3.4-.4.2-.1.3-.1.5-.1h19.5c2.3.1 1.6 0 1.8 0 .1 0 .2-.1.3-.1 2.7-.5 4.4-1.5 4.9-3l4.5-15.1H75.6c-.7 2.3-6 19-6 18.9l-.9 2.4c.4 2.1 1.5 3.1 3.7 3.2h27s1.2.1 2.3-.7c.9-.7 1-2 1-2zm-12.4-7.7l3.4-10.3c0-.1.1-.2.3-.3l.5-.3c.1-.1.3-.1.5-.1h4.7c.2 0 .5.1.5.2l.3.3c.1.1.2.3.1.5l-3 9.3c-.2.5-.7 1.3-2.4 1.6h.5-4.4c-.2 0-.4-.1-.5-.2l-.3-.3c-.2 0-.3-.2-.2-.4zm-12.9 0l3.5-10.3c0-.1.1-.2.3-.3l.5-.3c.1-.1.3-.1.5-.1h4.5c.2 0 .5.1.5.2l.3.3c.1.1.2.3.1.5L84 33.7c0 .1-.2.3-.3.3l-.5.3c-.1.1-.3.1-.4.1h-4.5c-.2 0-.4-.1-.5-.2l-.4-.3v-.5z"/></svg>